# xmcd CD database file
#
# Track frame offsets:
#	150
#	16425
#	51635
#	59738
#	77004
#	104069
#	123227
#	142430
#	160166
#	189745
#	221724
#
# Disc length: 3232 seconds
#
# Revision: 0
# Processed by: cddbd v1.5.2PL0 Copyright (c) Steve Scherf et al.
# Submitted via: CDex 1.70beta2
#
DISCID=b20c9e0b
DTITLE=Eve Selis - Burn A Candle Tonight [CD1 of 2)
DYEAR=2006
DGENRE=Country
TTITLE0=I Still Believe In You
TTITLE1=Where Angels Walk
TTITLE2=Prayer For You
TTITLE3=Let Love Come Through
TTITLE4=Show Me What Love Is
TTITLE5=Just Three Words
TTITLE6=Doghouse
TTITLE7=From Where I Stand
TTITLE8=Love Is On Our Side
TTITLE9=The Lucky One
TTITLE10=Daydream
EXTD=YEAR: 2006
EXTT0=
EXTT1=
EXTT2=
EXTT3=
EXTT4=
EXTT5=
EXTT6=
EXTT7=
EXTT8=
EXTT9=
EXTT10=
PLAYORDER=
